<svg width="35" height="34" viewBox="0 0 35 34" fill="none" xmlns="http://www.w3.org/2000/svg">
    <g clip-path="url(#clip0_1_359)">
        <path d="M26.9748 20.7907C26.301 20.1103 25.6272 19.4299 24.9533 18.7495C23.3449 20.1384 21.9816 21.7006 20.8744 23.4017C20.7408 23.607 20.4158 23.5309 20.3944 23.2889L19.7993 16.5683H15.2006L14.6056 23.2889C14.5842 23.5309 14.2591 23.607 14.1255 23.4017C13.0183 21.7005 11.655 20.1384 10.0466 18.7495C9.37279 19.4299 8.69894 20.1103 8.02509 20.7906C10.6915 23.7391 12.7578 27.7283 13.4138 31.2927C13.6263 32.4467 14.6704 33.2805 15.8772 33.28C16.898 33.2795 18.102 33.2795 19.123 33.2799C20.3296 33.2803 21.3736 32.4465 21.586 31.2927C22.2421 27.7284 24.3085 23.7392 26.9748 20.7907Z" fill="url(#paint0_linear_1_359)"/>
        <path d="M20.36 22.9L19.7994 16.5684H15.2006L14.64 22.9H20.36Z" fill="url(#paint1_linear_1_359)"/>
        <path d="M14.6056 23.2889C14.5842 23.5309 14.2591 23.607 14.1255 23.4017C13.0184 21.7005 11.655 20.1384 10.0466 18.7495C9.37279 19.4299 8.69894 20.1103 8.02509 20.7907C10.6915 23.7392 12.7578 27.7283 13.4139 31.2927C13.4752 31.6259 13.6061 31.9321 13.79 32.1995L14.6056 23.2889Z" fill="url(#paint2_linear_1_359)"/>
        <path d="M14.6056 23.2889C14.5842 23.5309 14.2591 23.607 14.1255 23.4017C13.0184 21.7005 11.655 20.1384 10.0466 18.7495C9.37279 19.4299 8.69894 20.1103 8.02509 20.7907C10.6915 23.7392 12.7578 27.7283 13.4139 31.2927C13.4752 31.6259 13.6061 31.9321 13.79 32.1995L14.6056 23.2889Z" fill="url(#paint3_linear_1_359)"/>
        <path d="M20.3944 23.2889C20.4158 23.5309 20.7409 23.607 20.8745 23.4017C21.9816 21.7005 23.345 20.1384 24.9534 18.7495C25.6272 19.4299 26.3011 20.1103 26.9749 20.7907C24.3085 23.7392 22.2421 27.7283 21.5861 31.2927C21.5248 31.6259 21.3938 31.9321 21.21 32.1995L20.3944 23.2889Z" fill="url(#paint4_linear_1_359)"/>
        <path d="M20.3944 23.2889C20.4158 23.5309 20.7409 23.607 20.8745 23.4017C21.9816 21.7005 23.345 20.1384 24.9534 18.7495C25.6272 19.4299 26.3011 20.1103 26.9749 20.7907C24.3085 23.7392 22.2421 27.7283 21.5861 31.2927C21.5248 31.6259 21.3938 31.9321 21.21 32.1995L20.3944 23.2889Z" fill="url(#paint5_linear_1_359)"/>
        <path d="M11.6868 26.2371C12.509 27.9169 13.1116 29.6499 13.414 31.2927C13.6264 32.4467 14.6705 33.2806 15.8774 33.2801C16.8981 33.2796 18.1021 33.2795 19.1231 33.2799C20.3298 33.2804 21.3737 32.4466 21.5861 31.2927C21.8885 29.6499 22.4911 27.9169 23.3134 26.2371H11.6868Z" fill="url(#paint6_linear_1_359)"/>
        <path d="M29.6479 11.9393C29.6462 11.9393 29.6447 11.9393 29.643 11.9393C29.4169 11.9395 29.2474 11.7361 29.3036 11.5234C29.4253 11.0639 29.4841 10.58 29.4697 10.0804C29.391 7.36847 27.1385 5.14807 24.3481 5.03453C23.9329 5.0176 23.5277 5.04707 23.1373 5.1176C22.955 5.15053 22.7772 5.036 22.7396 4.85953C22.2358 2.49633 20.082 0.719933 17.5 0.719933C14.918 0.719933 12.7642 2.49633 12.2604 4.85947C12.2228 5.03593 12.0451 5.15047 11.8627 5.11753C11.4723 5.04707 11.0671 5.0176 10.6519 5.03447C7.86148 5.14807 5.60905 7.3684 5.53034 10.0803C5.51586 10.5799 5.57474 11.0639 5.69635 11.5233C5.75269 11.7361 5.58318 11.9395 5.35699 11.9392C5.35534 11.9392 5.35376 11.9392 5.35211 11.9392C2.3533 11.9392 -0.069456 14.335 0.00150475 17.2637C0.0690342 20.0507 2.43126 22.3113 5.30092 22.3373C6.95738 22.3524 8.442 21.6362 9.43394 20.501C9.55321 20.3645 9.76349 20.3433 9.9076 20.4548C10.8219 21.1622 11.9797 21.5851 13.2394 21.5851C14.8153 21.5851 16.2311 20.9227 17.2105 19.8697C17.3502 19.7195 17.5915 19.7211 17.7287 19.8736C18.7098 20.9644 20.1523 21.6535 21.7605 21.6535C23.036 21.6535 24.2068 21.2197 25.1262 20.4961C25.2692 20.3836 25.4794 20.4033 25.5998 20.5385C26.5958 21.6567 28.0738 22.3583 29.7205 22.3371C32.5818 22.3002 34.9312 20.0427 34.9984 17.2636C35.0694 14.335 32.6466 11.9393 29.6479 11.9393Z" fill="url(#paint7_linear_1_359)"/>
        <path d="M0.434894 15.0861C0.140002 15.7519 -0.0172921 16.4888 0.00151184 17.2638C0.0690413 20.0508 2.43127 22.3113 5.30092 22.3374C6.95738 22.3525 8.442 21.6363 9.43394 20.5011C9.55322 20.3646 9.76349 20.3433 9.90761 20.4549C10.8219 21.1623 11.9797 21.5851 13.2394 21.5851C14.8153 21.5851 16.2311 20.9228 17.2105 19.8698C17.3502 19.7196 17.5916 19.7213 17.7287 19.8737C18.7098 20.9645 20.1523 21.6535 21.7605 21.6535C23.036 21.6535 24.2068 21.2197 25.1262 20.4962C25.2692 20.3837 25.4795 20.4034 25.5998 20.5386C26.5958 21.6567 28.0738 22.3584 29.7205 22.3371C32.5818 22.3003 34.9312 20.0427 34.9984 17.2637C35.0172 16.4887 34.8599 15.7519 34.565 15.0861H0.434894Z" fill="url(#paint8_linear_1_359)"/>
        <path d="M29.4684 11.8943C29.3392 11.8229 29.2633 11.6758 29.3036 11.5234C29.4252 11.0639 29.4841 10.58 29.4696 10.0804C29.391 7.36847 27.1385 5.14807 24.3481 5.03453C23.9329 5.0176 23.5277 5.04707 23.1373 5.1176C23.0896 5.1262 23.0424 5.12427 22.9978 5.11427C20.5606 5.65733 18.7422 7.77553 18.7422 10.3078C18.7422 13.2515 21.1987 15.6377 24.2289 15.6377C24.3387 15.6377 24.4474 15.6335 24.5556 15.6273C25.2025 13.5661 27.1578 11.9839 29.4684 11.8943Z" fill="url(#paint9_linear_1_359)"/>
        <path d="M12.0022 5.1142C11.9576 5.1242 11.9104 5.12613 11.8627 5.11753C11.4724 5.04707 11.0671 5.01753 10.6519 5.03447C7.86147 5.14807 5.60905 7.3684 5.53034 10.0803C5.51586 10.5799 5.57474 11.0639 5.69635 11.5233C5.7367 11.6757 5.66087 11.8229 5.53157 11.8943C5.53157 11.8943 9.00728 11.8333 10.4443 15.6272C10.5525 15.6334 10.6612 15.6376 10.771 15.6376C13.8012 15.6376 16.2577 13.2513 16.2577 10.3077C16.2578 7.77547 14.4393 5.6572 12.0022 5.1142Z" fill="url(#paint10_linear_1_359)"/>
    </g>
    <defs>
        <linearGradient id="paint0_linear_1_359" x1="15.3916" y1="22.4832" x2="22.9494" y2="28.6521" gradientUnits="userSpaceOnUse">
            <stop stop-color="#BBEC6C"/>
            <stop offset="1" stop-color="#81B823"/>
        </linearGradient>
        <linearGradient id="paint1_linear_1_359" x1="17.5" y1="22.4" x2="17.5" y2="19.3187" gradientUnits="userSpaceOnUse">
            <stop stop-color="#47A920" stop-opacity="0"/>
            <stop offset="0.2298" stop-color="#45932F" stop-opacity="0.23"/>
            <stop offset="0.7392" stop-color="#40694D" stop-opacity="0.739"/>
            <stop offset="1" stop-color="#3E5959"/>
        </linearGradient>
        <linearGradient id="paint2_linear_1_359" x1="12.695" y1="24.4733" x2="15.1168" y2="21.5705" gradientUnits="userSpaceOnUse">
            <stop stop-color="#47A920" stop-opacity="0"/>
            <stop offset="0.242" stop-color="#459A2A" stop-opacity="0.242"/>
            <stop offset="0.7001" stop-color="#417545" stop-opacity="0.7"/>
            <stop offset="1" stop-color="#3E5959"/>
        </linearGradient>
        <linearGradient id="paint3_linear_1_359" x1="11.6559" y1="23.1931" x2="9.72071" y2="19.5128" gradientUnits="userSpaceOnUse">
            <stop stop-color="#47A920" stop-opacity="0"/>
            <stop offset="0.242" stop-color="#459A2A" stop-opacity="0.242"/>
            <stop offset="0.7001" stop-color="#417545" stop-opacity="0.7"/>
            <stop offset="1" stop-color="#3E5959"/>
        </linearGradient>
        <linearGradient id="paint4_linear_1_359" x1="22.3049" y1="24.4733" x2="19.8832" y2="21.5705" gradientUnits="userSpaceOnUse">
            <stop stop-color="#47A920" stop-opacity="0"/>
            <stop offset="0.242" stop-color="#459A2A" stop-opacity="0.242"/>
            <stop offset="0.7001" stop-color="#417545" stop-opacity="0.7"/>
            <stop offset="1" stop-color="#3E5959"/>
        </linearGradient>
        <linearGradient id="paint5_linear_1_359" x1="23.2869" y1="23.2384" x2="24.5565" y2="19.1836" gradientUnits="userSpaceOnUse">
            <stop stop-color="#47A920" stop-opacity="0"/>
            <stop offset="0.242" stop-color="#459A2A" stop-opacity="0.242"/>
            <stop offset="0.7001" stop-color="#417545" stop-opacity="0.7"/>
            <stop offset="1" stop-color="#3E5959"/>
        </linearGradient>
        <linearGradient id="paint6_linear_1_359" x1="17.5" y1="29.2889" x2="17.5" y2="33.5555" gradientUnits="userSpaceOnUse">
            <stop stop-color="#47A920" stop-opacity="0"/>
            <stop offset="0.242" stop-color="#459A2A" stop-opacity="0.242"/>
            <stop offset="0.7001" stop-color="#417545" stop-opacity="0.7"/>
            <stop offset="1" stop-color="#3E5959"/>
        </linearGradient>
        <linearGradient id="paint7_linear_1_359" x1="8.69777" y1="7.8174" x2="22.6816" y2="22.2125" gradientUnits="userSpaceOnUse">
            <stop stop-color="#8BC727"/>
            <stop offset="1" stop-color="#017B4E"/>
        </linearGradient>
        <linearGradient id="paint8_linear_1_359" x1="17.5" y1="16.4889" x2="17.5" y2="22.8445" gradientUnits="userSpaceOnUse">
            <stop stop-color="#026841" stop-opacity="0"/>
            <stop offset="0.2377" stop-color="#0A6644" stop-opacity="0.238"/>
            <stop offset="0.6075" stop-color="#20614D" stop-opacity="0.608"/>
            <stop offset="1" stop-color="#3E5959"/>
        </linearGradient>
        <linearGradient id="paint9_linear_1_359" x1="22.9216" y1="10.3337" x2="31.2483" y2="10.3337" gradientUnits="userSpaceOnUse">
            <stop stop-color="#026841" stop-opacity="0"/>
            <stop offset="0.2377" stop-color="#0A6644" stop-opacity="0.238"/>
            <stop offset="0.6075" stop-color="#20614D" stop-opacity="0.608"/>
            <stop offset="1" stop-color="#3E5959"/>
        </linearGradient>
        <linearGradient id="paint10_linear_1_359" x1="10.4808" y1="10.4993" x2="1.38209" y2="14.8794" gradientUnits="userSpaceOnUse">
            <stop stop-color="#026841" stop-opacity="0"/>
            <stop offset="0.2377" stop-color="#0A6644" stop-opacity="0.238"/>
            <stop offset="0.6075" stop-color="#20614D" stop-opacity="0.608"/>
            <stop offset="1" stop-color="#3E5959"/>
        </linearGradient>
        <clipPath id="clip0_1_359">
            <rect width="35" height="34" fill="white"/>
        </clipPath>
    </defs>
</svg>
