<svg width="8" height="14" viewBox="0 0 8 14" fill="none" xmlns="http://www.w3.org/2000/svg">
<path d="M6.62925 0.583338C6.5092 0.58264 6.3902 0.605762 6.27906 0.65138C6.16792 0.696998 6.06683 0.764214 5.98159 0.849172L0.508424 6.34917C0.338526 6.52092 0.243164 6.75325 0.243164 6.99542C0.243164 7.23759 0.338526 7.46992 0.508424 7.64167L5.98159 13.1417C6.1561 13.2918 6.38057 13.3703 6.61015 13.3614C6.83972 13.3525 7.0575 13.2569 7.21996 13.0936C7.38241 12.9304 7.47759 12.7115 7.48645 12.4808C7.49532 12.2501 7.41723 12.0245 7.26779 11.8492L2.44228 7.00001L7.26779 2.15084C7.39588 2.02317 7.48343 1.8602 7.51935 1.68254C7.55528 1.50488 7.53798 1.3205 7.46963 1.15272C7.40128 0.984942 7.28496 0.841296 7.13538 0.739947C6.98579 0.638597 6.80966 0.584098 6.62925 0.583338Z" fill="#06161C"/>
</svg>
