<svg width="138" height="138" viewBox="0 0 138 138" fill="none" xmlns="http://www.w3.org/2000/svg">
    <mask id="mask0_102_5" style="mask-type:alpha" x="0" y="0" width="138" height="138">
        <circle cx="69" cy="69" r="68.8679" fill="#DEDEE8"/>
    </mask>
    <g mask="url(#mask0_102_5)">
        <path d="M47.2598 126.243C47.2598 126.243 30.7328 129.567 30.0343 115.65C29.7323 109.627 28.92 110.568 23.6532 105.489C18.3865 100.41 18.3865 98.3414 19.5159 93.6387C20.6454 88.936 25.3874 87.3204 23.0437 82.9749C19.9559 77.2517 20.9026 67.4677 27.6119 63.6538C34.0978 59.9668 34.828 60.0165 34.828 56.2357C34.828 51.2978 39.9548 43.3411 50.5324 44.1686C59.6345 44.8795 58.2174 40.4526 64.6681 38.4805C76.6787 34.8073 82.4984 45.2098 86.6364 45.5863C90.7744 45.9628 97.9353 46.0324 101.57 51.5323C106.077 58.3533 102.095 63.92 107.739 64.484C113.382 65.0481 119.025 69.939 118.837 75.0182C118.649 80.0974 115.639 84.423 117.708 86.6805C119.777 88.9381 120.579 102.306 112.23 104.865C100.819 108.361 112.23 125.253 91.2439 124.94C72.3773 124.657 47.2598 126.243 47.2598 126.243Z" fill="#3F2037"/>
        <path d="M115.129 139.238H20.5235C20.5235 139.238 21.4737 127.434 27.1859 125.152C28.3671 124.679 30.3323 123.757 32.7058 122.593C33.034 122.431 33.3719 122.266 33.7146 122.096H33.7215C34.3273 121.795 34.9528 121.483 35.5977 121.159C40.1991 118.852 45.6106 116.043 49.8244 113.836L51.2456 113.092C54.5858 111.337 56.8813 110.116 56.8813 110.116L57.6039 110.278C64.3288 111.785 71.3095 111.729 78.0097 110.116C78.0097 110.116 80.3907 111.342 83.846 113.103C83.8901 113.126 83.9329 113.147 83.9777 113.172C86.0629 114.236 88.5287 115.488 91.0979 116.78C97.9982 120.255 105.612 124.014 108.468 125.157C114.181 127.434 115.129 139.238 115.129 139.238Z" fill="#0075CF"/>
        <path d="M68.7643 132.938C66.734 132.94 64.7117 132.683 62.7459 132.175C60.3962 131.606 58.1638 130.631 56.149 129.294C56.0916 129.255 56.0426 129.205 56.005 129.146C55.9674 129.088 55.942 129.023 55.9301 128.954C55.9183 128.886 55.9204 128.816 55.9362 128.748C55.9521 128.681 55.9813 128.617 56.0223 128.561C56.0633 128.505 56.1151 128.458 56.1747 128.422C56.2344 128.386 56.3005 128.363 56.3693 128.354C56.4381 128.344 56.508 128.349 56.575 128.367C56.642 128.385 56.7047 128.417 56.7593 128.46C58.6859 129.719 60.8133 130.641 63.05 131.186C68.3178 132.502 73.8766 131.986 78.8123 129.723C78.875 129.692 78.9434 129.675 79.0132 129.671C79.0831 129.667 79.1529 129.677 79.2186 129.701C79.2843 129.725 79.3445 129.762 79.3954 129.81C79.4464 129.858 79.4871 129.916 79.5151 129.98C79.5431 130.044 79.5578 130.113 79.5584 130.183C79.5589 130.253 79.5453 130.322 79.5183 130.387C79.4912 130.452 79.4514 130.51 79.4012 130.559C79.351 130.607 79.2914 130.645 79.2261 130.67C75.9354 132.148 72.3716 132.921 68.7643 132.938Z" fill="#0056A8"/>
        <path d="M83.8481 113.099C82.7324 117.951 79.1351 127.013 67.8265 127.013C55.7884 127.013 52.2303 117.346 51.2457 113.088C54.5858 111.332 56.8813 110.112 56.8813 110.112L57.604 110.274C64.3289 111.78 71.3096 111.725 78.0097 110.112C78.0097 110.112 80.3928 111.339 83.8481 113.099Z" fill="#FFB8A1"/>
        <path d="M39.544 139.238H20.5235C20.5235 139.238 21.4737 127.434 27.1859 125.152C28.3671 124.679 30.3323 123.757 32.7058 122.593C33.034 122.431 33.3719 122.266 33.7146 122.096H33.7215C34.3273 121.795 34.9528 121.483 35.5977 121.159C37.0209 125.123 39.3785 132.631 39.544 139.238Z" fill="#FFB8A1"/>
        <path d="M96.1137 139.238H115.129C115.129 139.238 114.179 127.434 108.468 125.152C107.286 124.679 105.321 123.757 102.948 122.593C102.619 122.431 102.282 122.265 101.938 122.096H101.931C101.326 121.795 100.7 121.483 100.055 121.159C98.6361 125.123 96.2785 132.631 96.1137 139.238Z" fill="#FFB8A1"/>
        <path d="M78.4944 112.522C78.4944 112.522 76.6388 118.354 68.1132 118.354C58.1693 118.354 55.829 113.052 55.829 113.052C56.6088 111.001 57.2312 108.892 57.6907 106.746C58.2616 104.161 58.5287 101.519 58.4865 98.8725L75.9561 98.183C76.1175 99.6621 76.3802 101.404 76.6774 103.156C77.4655 107.806 78.4944 112.522 78.4944 112.522Z" fill="#FFB8A1"/>
        <path d="M76.676 103.155C73.9689 105.037 68.0519 107.839 57.6894 106.747C58.2603 104.163 58.5273 101.52 58.4851 98.8739L75.9548 98.1844C76.1161 99.6593 76.3768 101.401 76.676 103.155Z" fill="#3F2037"/>
        <path d="M86.0168 77.0835C86.0168 77.0835 90.1092 71.5134 93.2929 74.808C96.4765 78.1027 90.3368 89.5871 84.7659 87.0861L86.0168 77.0835Z" fill="#FFB8A1"/>
        <path d="M84.3254 86.9756C82.6451 87.7883 81.3107 89.175 80.5633 90.8854C79.816 92.5958 79.7048 94.517 80.25 96.3022C80.7952 98.0873 81.9607 99.6186 83.5361 100.62C85.1115 101.621 86.9929 102.025 88.8405 101.761C90.6882 101.496 92.3803 100.579 93.6112 99.1761C94.8422 97.773 95.5308 95.976 95.5528 94.1096C95.5748 92.2432 94.9286 90.4305 93.7311 88.9988C92.5335 87.5671 90.8635 86.6108 89.0226 86.3026C88.6674 86.2422 88.3084 86.2072 87.9483 86.1978C87.9741 85.8969 88.0366 85.6003 88.1345 85.3145C88.7276 85.341 89.3164 85.429 89.8914 85.5772C91.8978 86.0908 93.6557 87.3024 94.8496 88.9948C96.0435 90.6871 96.5953 92.7495 96.4061 94.812C96.2169 96.8745 95.2991 98.802 93.8172 100.249C92.3353 101.696 90.3864 102.567 88.32 102.707C86.2536 102.847 84.205 102.246 82.5416 101.012C80.8782 99.7785 79.7089 97.9923 79.2433 95.9742C78.7778 93.956 79.0466 91.8381 80.0015 90.0002C80.9563 88.1623 82.5347 86.7248 84.4536 85.9455L84.3254 86.9756Z" fill="#FFF7F1"/>
        <path d="M87.6633 83.6667C87.6503 83.6677 87.6371 83.6677 87.624 83.6667C87.5498 83.6564 87.4827 83.6171 87.4374 83.5574C87.3922 83.4976 87.3725 83.4224 87.3827 83.3481C87.8205 80.7385 89.1931 78.3774 91.2442 76.7057C91.3039 76.66 91.3793 76.6399 91.4538 76.6497C91.5284 76.6596 91.596 76.6987 91.6417 76.7585C91.6874 76.8182 91.7075 76.8936 91.6976 76.9681C91.6877 77.0427 91.6486 77.1103 91.5889 77.156C89.6684 78.7471 88.3762 80.9692 87.9433 83.4253C87.9335 83.4925 87.8998 83.5539 87.8484 83.5983C87.7969 83.6426 87.7312 83.6669 87.6633 83.6667Z" fill="#FF8A8A"/>
        <path d="M88.5207 80.887C88.4694 80.8868 88.4191 80.8727 88.3752 80.8462C88.3313 80.8197 88.2954 80.7818 88.2713 80.7365C88.2472 80.6912 88.2359 80.6403 88.2385 80.589C88.2412 80.5378 88.2577 80.4883 88.2863 80.4457C88.9606 79.4486 90.7893 79.5493 90.8665 79.5555C90.9414 79.56 91.0114 79.5942 91.0611 79.6504C91.1109 79.7065 91.1362 79.7802 91.1317 79.8551C91.1271 79.93 91.0929 80 91.0368 80.0497C90.9806 80.0994 90.9069 80.1248 90.832 80.1202C90.3921 80.094 89.164 80.1574 88.7551 80.7622C88.7292 80.8005 88.6943 80.8319 88.6534 80.8537C88.6125 80.8754 88.567 80.8868 88.5207 80.887Z" fill="#FF8A8A"/>
        <path d="M50.5186 77.0835C50.5186 77.0835 46.4261 71.5134 43.2425 74.808C40.0589 78.1027 46.1986 89.5871 51.7695 87.0861L50.5186 77.0835Z" fill="#FFB8A1"/>
        <path d="M51.6283 85.9455C53.547 86.7248 55.1252 88.1623 56.0798 90C57.0345 91.8378 57.3032 93.9555 56.8377 95.9734C56.3721 97.9913 55.2029 99.7773 53.5397 101.011C51.8764 102.245 49.828 102.846 47.7618 102.706C45.6957 102.566 43.7469 101.695 42.2652 100.248C40.7834 98.801 39.8656 96.8737 39.6763 94.8115C39.4871 92.7492 40.0387 90.687 41.2324 88.9948C42.4261 87.3025 44.1837 86.0909 46.1899 85.5772C46.7651 85.4291 47.3541 85.341 47.9475 85.3145C48.0454 85.6003 48.1079 85.8969 48.1337 86.1978C47.7733 86.2072 47.4141 86.2422 47.0587 86.3026C45.2178 86.6108 43.5477 87.5671 42.3502 88.9988C41.1526 90.4305 40.5065 92.2432 40.5285 94.1096C40.5504 95.976 41.2391 97.773 42.47 99.1761C43.701 100.579 45.3931 101.496 47.2407 101.761C49.0884 102.025 50.9698 101.621 52.5452 100.62C54.1206 99.6187 55.2861 98.0873 55.8313 96.3022C56.3764 94.517 56.2653 92.5958 55.5179 90.8854C54.7705 89.175 53.4362 87.7883 51.7559 86.9756L51.6283 85.9455Z" fill="#FFF7F1"/>
        <path d="M51.6283 85.9455C53.547 86.7248 55.1252 88.1623 56.0798 90C57.0345 91.8378 57.3032 93.9555 56.8377 95.9734C56.3721 97.9913 55.2029 99.7773 53.5397 101.011C51.8764 102.245 49.828 102.846 47.7618 102.706C45.6957 102.566 43.7469 101.695 42.2652 100.248C40.7834 98.801 39.8656 96.8737 39.6763 94.8115C39.4871 92.7492 40.0387 90.687 41.2324 88.9948C42.4261 87.3025 44.1837 86.0909 46.1899 85.5772C46.7651 85.4291 47.3541 85.341 47.9475 85.3145C48.0454 85.6003 48.1079 85.8969 48.1337 86.1978C47.7733 86.2072 47.4141 86.2422 47.0587 86.3026C45.2178 86.6108 43.5477 87.5671 42.3502 88.9988C41.1526 90.4305 40.5065 92.2432 40.5285 94.1096C40.5504 95.976 41.2391 97.773 42.47 99.1761C43.701 100.579 45.3931 101.496 47.2407 101.761C49.0884 102.025 50.9698 101.621 52.5452 100.62C54.1206 99.6187 55.2861 98.0873 55.8313 96.3022C56.3764 94.517 56.2653 92.5958 55.5179 90.8854C54.7705 89.175 53.4362 87.7883 51.7559 86.9756L51.6283 85.9455Z" fill="#FFF7F1"/>
        <path d="M48.8737 83.6667C48.8867 83.6677 48.8999 83.6677 48.913 83.6667C48.9872 83.6564 49.0543 83.6171 49.0996 83.5574C49.1448 83.4976 49.1645 83.4224 49.1543 83.3481C48.7165 80.7385 47.3439 78.3774 45.2928 76.7057C45.2331 76.66 45.1577 76.6399 45.0832 76.6497C45.0086 76.6596 44.941 76.6987 44.8953 76.7585C44.8496 76.8182 44.8295 76.8936 44.8394 76.9681C44.8493 77.0427 44.8884 77.1103 44.9481 77.156C46.8686 78.7471 48.1608 80.9692 48.5937 83.4253C48.6035 83.4925 48.6372 83.5539 48.6886 83.5983C48.7401 83.6426 48.8058 83.6669 48.8737 83.6667Z" fill="#FF8A8A"/>
        <path d="M48.0162 80.887C48.0675 80.8868 48.1178 80.8727 48.1617 80.8462C48.2057 80.8197 48.2416 80.7818 48.2656 80.7365C48.2897 80.6912 48.301 80.6403 48.2984 80.589C48.2957 80.5378 48.2792 80.4883 48.2507 80.4457C47.5763 79.4486 45.7476 79.5493 45.6704 79.5555C45.5955 79.56 45.5255 79.5942 45.4758 79.6504C45.426 79.7065 45.4007 79.7802 45.4053 79.8551C45.4098 79.93 45.444 80 45.5002 80.0497C45.5563 80.0994 45.63 80.1248 45.7049 80.1202C46.1448 80.094 47.3729 80.1574 47.7818 80.7622C47.8077 80.8005 47.8427 80.8319 47.8835 80.8537C47.9244 80.8754 47.9699 80.8868 48.0162 80.887Z" fill="#FF8A8A"/>
        <path d="M88.0906 77.9863C87.7955 89.3232 81.6399 104.672 68.111 104.351C56.1405 104.07 50.1959 92.7109 48.7485 82.3484C48.6272 81.4741 48.5368 80.6052 48.4782 79.7522C47.3253 63.0494 53.9663 54.4983 68.2399 54.0315C69.0412 54.0048 69.8673 54.0048 70.7182 54.0315C72.3971 54.2056 74.0637 54.4833 75.7084 54.8631C85.5696 58.0943 88.3995 66.0675 88.0906 77.9863Z" fill="#FFB8A1"/>
        <g opacity="0.5">
            <g opacity="0.5">
                <path opacity="0.5" d="M61.3653 84.7856C61.3653 86.0957 58.9519 87.1528 55.9751 87.1528C52.9983 87.1528 50.5842 86.093 50.5842 84.7856C50.5842 83.4782 52.9976 82.4191 55.9751 82.4191C58.9525 82.4191 61.3653 83.4789 61.3653 84.7856Z" fill="#FF8A8A"/>
            </g>
        </g>
        <g opacity="0.5">
            <g opacity="0.5">
                <path opacity="0.5" d="M86.7253 84.7856C86.7253 86.0957 84.3119 87.1528 81.3351 87.1528C78.3583 87.1528 75.9449 86.093 75.9449 84.7856C75.9449 83.4782 78.3583 82.4191 81.3351 82.4191C84.3119 82.4191 86.7253 83.4789 86.7253 84.7856Z" fill="#FF8A8A"/>
            </g>
        </g>
        <path d="M60.3463 64.2394C56.8393 64.5056 57.8936 68.5684 54.4404 70.5543C50.6479 72.7346 51.1188 74.0406 52.0366 77.0967C53.3999 81.6374 48.9171 82.7172 48.9171 82.7172C48.8606 82.5986 48.8033 82.4759 48.7489 82.3517C48.6275 81.4774 48.5372 80.6086 48.4786 79.7556C47.3256 63.0493 52.6641 53.3136 68.2375 54.0314C70.171 61.3468 65.0387 63.8829 60.3463 64.2394Z" fill="#3F2037"/>
        <path d="M75.8342 63.0401C80.497 62.9656 78.8683 67.7924 81.6223 70.0127C85.0259 72.7578 86.1423 71.5911 84.6466 76.089C83.1007 80.74 87.5427 82.717 87.5427 82.717C87.6 82.5983 87.6565 82.4756 87.7117 82.3515C87.8324 81.4771 87.9234 80.6083 87.982 79.7554C89.1349 63.049 83.4841 53.3574 68.223 54.0311C66.2951 61.3465 71.1295 63.1145 75.8342 63.0401Z" fill="#3F2037"/>
        <path d="M63.5913 70.0203C61.762 70.0624 57.7729 70.5506 55.9781 73.8728C55.9781 73.8728 60.1002 71.9145 63.55 72.1241C63.7045 72.1334 63.8592 72.1085 64.003 72.0511C64.1469 71.9937 64.2762 71.9052 64.3819 71.7921C64.4877 71.6789 64.5671 71.5439 64.6146 71.3965C64.6621 71.2491 64.6764 71.0931 64.6567 70.9395C64.624 70.6817 64.4971 70.4452 64.3004 70.2755C64.1037 70.1057 63.8511 70.0148 63.5913 70.0203Z" fill="#3F2037"/>
        <path d="M73.7192 70.0203C75.5486 70.0624 79.5376 70.5506 81.3318 73.8728C81.3318 73.8728 77.2097 71.9145 73.7606 72.1241C73.606 72.1335 73.4512 72.1087 73.3073 72.0513C73.1634 71.994 73.0339 71.9056 72.9281 71.7924C72.8223 71.6792 72.7428 71.5441 72.6953 71.3967C72.6478 71.2493 72.6334 71.0931 72.6532 70.9395C72.6857 70.6816 72.8127 70.4448 73.0096 70.2751C73.2065 70.1053 73.4593 70.0145 73.7192 70.0203Z" fill="#3F2037"/>
        <path d="M69.1924 89.0402C68.4595 89.0186 67.7388 88.8471 67.0748 88.5361C66.9719 88.4915 66.8863 88.4147 66.831 88.3171C66.7756 88.2196 66.7535 88.1067 66.768 87.9955L67.8492 79.6899C67.8669 79.5538 67.9378 79.4304 68.0465 79.3466C68.1552 79.2629 68.2927 79.2258 68.4288 79.2434C68.5648 79.2611 68.6883 79.3321 68.772 79.4407C68.8558 79.5494 68.8929 79.6869 68.8752 79.823L67.8451 87.7321C68.2494 87.9328 68.6977 88.029 69.1488 88.0118C69.5999 87.9945 70.0395 87.8645 70.4274 87.6335C70.4836 87.5927 70.5474 87.5637 70.6151 87.5481C70.6827 87.5325 70.7528 87.5307 70.8212 87.5427C70.8895 87.5548 70.9548 87.5805 71.013 87.6184C71.0712 87.6562 71.1212 87.7054 71.16 87.7629C71.1988 87.8205 71.2256 87.8853 71.2389 87.9534C71.2521 88.0216 71.2515 88.0917 71.2371 88.1596C71.2226 88.2275 71.1946 88.2918 71.1548 88.3487C71.115 88.4055 71.0641 88.4538 71.0053 88.4906C70.4713 88.8546 69.8386 89.0463 69.1924 89.0402Z" fill="#FF8A8A"/>
        <path d="M68.1661 94.5304C67.7389 94.5303 67.3121 94.5056 66.8877 94.4566C65.4633 94.2994 64.0791 93.8857 62.8021 93.2354C62.6823 93.1686 62.594 93.0569 62.5566 92.925C62.5191 92.793 62.5356 92.6516 62.6025 92.5318C62.6693 92.412 62.781 92.3237 62.913 92.2862C63.0449 92.2488 63.1864 92.2653 63.3062 92.3321C63.5551 92.4701 69.47 95.6654 74.5906 90.9282C74.6919 90.8394 74.8238 90.7935 74.9584 90.8005C75.093 90.8075 75.2195 90.8667 75.3111 90.9655C75.4026 91.0644 75.452 91.195 75.4487 91.3297C75.4453 91.4644 75.3896 91.5925 75.2932 91.6867C73.3743 93.5201 70.8201 94.5393 68.1661 94.5304Z" fill="#FF8A8A"/>
        <path d="M69.0674 97.5636C68.3113 97.562 67.559 97.456 66.8319 97.2485C66.7028 97.2063 66.5955 97.1149 66.5332 96.9941C66.4709 96.8734 66.4586 96.7329 66.499 96.6032C66.5394 96.4735 66.6292 96.3649 66.7491 96.3008C66.8689 96.2368 67.0092 96.2225 67.1395 96.2611C67.1684 96.27 69.5356 96.983 71.2023 96.0404C71.2613 96.0001 71.3281 95.9725 71.3984 95.9593C71.4687 95.9461 71.541 95.9476 71.6106 95.9637C71.6803 95.9799 71.7459 96.0103 71.8032 96.0531C71.8605 96.0958 71.9083 96.15 71.9436 96.2122C71.9789 96.2744 72.0009 96.3433 72.0083 96.4144C72.0156 96.4855 72.0082 96.5574 71.9863 96.6255C71.9645 96.6936 71.9287 96.7564 71.8814 96.81C71.834 96.8636 71.776 96.9068 71.7111 96.9368C70.8982 97.369 69.9878 97.5849 69.0674 97.5636Z" fill="#FF8A8A"/>
        <path d="M62.0951 77.9683C62.12 79.4122 61.5883 80.5886 60.9064 80.6037C60.2244 80.6189 59.6507 79.455 59.6259 78.011C59.601 76.5671 60.1334 75.3866 60.8146 75.3749C61.4959 75.3632 62.0703 76.5244 62.0951 77.9683Z" fill="#3F2037"/>
        <path d="M74.9976 77.9683C74.9728 79.4122 75.5051 80.5886 76.1864 80.6037C76.8676 80.6189 77.4421 79.455 77.4669 78.011C77.4917 76.5671 76.9601 75.3866 76.2781 75.3749C75.5961 75.3632 75.0259 76.5244 74.9976 77.9683Z" fill="#3F2037"/>
    </g>
</svg>
