<svg width="15" height="18" viewBox="1 0 15 18" fill="none" xmlns="http://www.w3.org/2000/svg">
    <path d="M15.7186 5.88293C14.8313 1.82634 11.4257 0 8.4341 0C8.4341 0 8.4341 0 8.42564 0C5.44254 0 2.02845 1.81756 1.14112 5.87415C0.152386 10.4049 2.82281 14.242 5.23972 16.6566C6.1355 17.5522 7.2848 18 8.4341 18C9.58339 18 10.7327 17.5522 11.62 16.6566C14.0369 14.242 16.7074 10.4137 15.7186 5.88293ZM8.4341 10.282C6.96367 10.282 5.77212 9.0439 5.77212 7.5161C5.77212 5.98829 6.96367 4.75024 8.4341 4.75024C9.90452 4.75024 11.0961 5.98829 11.0961 7.5161C11.0961 9.0439 9.90452 10.282 8.4341 10.282Z" fill="#FF324B"/>
</svg>
